:FULLY-SPECIFIED
:FORCE-ALL-JOINTS-BE-3DOF
:DEGREES
114
root 9.35187 16.1746 -21.4335 4.31116 3.65049 4.93143
lfemur 11.1719 0.275935 -29.0822
ltibia 4.84466 0 0
lfoot -16.7211 2.33037 0
ltoes -4.983 0 0
rfemur -39.7324 8.92386 8.92834
rtibia 29.6385 0 0
rfoot -22.9287 -9.05894 0
rtoes -18.4624 0 0
lowerback -8.39166 -3.2535 -5.51272
upperback -0.635655 -3.89825 1.81685
thorax 4.5583 -2.05706 4.51389
lowerneck -19.8103 -5.11552 -12.6254
upperneck 21.2243 -6.02087 10.9437
head 10.8514 -2.50349 5.17097
lclavicle 2.50791e-14 -2.09214e-14 0
lhumerus -24.2508 -27.4035 92.1933
lradius 41.5858 0 0
lwrist 13.0539 0 0
lhand -13.9911 -24.865 0
lfingers 7.12502 0 0
lthumb 12.1372 4.75463 0
rclavicle 2.50791e-14 -2.09214e-14 0
rhumerus -45.791 8.83555 -85.1137
rradius 35.4221 0 0
rwrist -20.1425 0 0
rhand -30.1198 -22.4356 0
rfingers 7.12502 0 0
rthumb -3.43311 -52.3878 0
115
root 9.34181 16.1557 -21.2975 4.44506 3.96809 5.06872
lfemur 11.8575 0.299233 -29.0622
ltibia 4.29833 0 0
lfoot -16.7973 1.99728 0
ltoes -5.15486 0 0
rfemur -40.0685 9.14616 8.38827
rtibia 29.1371 0 0
rfoot -23.2267 -9.46619 0
rtoes -18.5809 0 0
lowerback -8.43303 -3.339 -5.7018
upperback -0.682741 -3.99392 1.82745
thorax 4.55849 -2.10672 4.61738
lowerneck -19.7923 -5.1331 -12.6731
upperneck 21.2618 -6.033 10.932
head 10.8643 -2.51485 5.17403
lclavicle 2.27611e-14 -1.98738e-14 0
lhumerus -24.7416 -27.5352 92.7618
lradius 41.6297 0 0
lwrist 13.0009 0 0
lhand -13.7264 -24.8379 0
lfingers 7.12502 0 0
lthumb 12.3924 4.76535 0
rclavicle 2.27611e-14 -1.98738e-14 0
rhumerus -45.9191 8.65005 -84.9184
rradius 35.2489 0 0
rwrist -20.1291 0 0
rhand -30.2076 -22.2779 0
rfingers 7.12502 0 0
rthumb -3.51788 -52.2288 0
116
root 9.33104 16.1366 -21.1605 4.58198 4.27982 5.20416
lfemur 12.5297 0.329513 -29.0317
ltibia 3.77344 0 0
lfoot -16.8561 1.66669 0
ltoes -5.33459 0 0
rfemur -40.3901 9.35688 7.8569
rtibia 28.6765 0 0
rfoot -23.5123 -9.88186 0
rtoes -18.6906 0 0
lowerback -8.46906 -3.42316 -5.89083
upperback -0.731849 -4.08804 1.83948
thorax 4.5535 -2.15546 4.72266
lowerneck -19.7782 -5.15034 -12.7215
upperneck 21.2955 -6.04432 10.9227
head 10.8766 -2.52548 5.17812
lclavicle 2.03185e-14 -1.87886e-14 0
lhumerus -25.2509 -27.6313 93.3313
lradius 41.6391 0 0
lwrist 12.9167 0 0
lhand -13.4491 -24.8064 0
lfingers 7.12502 0 0
lthumb 12.6597 4.77958 0
rclavicle 2.03185e-14 -1.87886e-14 0
rhumerus -46.0478 8.46456 -84.7222
rradius 35.0743 0 0
rwrist -20.1137 0 0
rhand -30.2964 -22.12 0
rfingers 7.12502 0 0
rthumb -3.60368 -52.0696 0
117
root 9.31953 16.1176 -21.0225 4.72049 4.58493 5.33577
lfemur 13.1882 0.366975 -28.989
ltibia 3.27205 0 0
lfoot -16.8911 1.34116 0
ltoes -5.52212 0 0
rfemur -40.6963 9.55314 7.34165
rtibia 28.2582 0 0
rfoot -23.7791 -10.2974 0
rtoes -18.7912 0 0
lowerback -8.49957 -3.50525 -6.0769
upperback -0.782281 -4.17992 1.85274
thorax 4.54366 -2.20292 4.828
lowerneck -19.7674 -5.1674 -12.7701
upperneck 21.3244 -6.05519 10.9161
head 10.8879 -2.5355 5.18323
lclavicle 1.77916e-14 -1.76867e-14 0
lhumerus -25.7736 -27.6872 93.894
lradius 41.6116 0 0
lwrist 12.7995 0 0
lhand -13.1635 -24.771 0
lfingers 7.12502 0 0
lthumb 12.9349 4.79722 0
rclavicle 1.77916e-14 -1.76867e-14 0
rhumerus -46.1764 8.27964 -84.5261
rradius 34.8982 0 0
rwrist -20.0944 0 0
rhand -30.3842 -21.9641 0
rfingers 7.12502 0 0
rthumb -3.68847 -51.9124 0
118
root 9.30728 16.0988 -20.8834 4.85915 4.88268 5.46159
lfemur 13.8325 0.411821 -28.9319
ltibia 2.79619 0 0
lfoot -16.8959 1.02326 0
ltoes -5.7174 0 0
rfemur -40.9859 9.73204 6.84996
rtibia 27.8837 0 0
rfoot -24.0206 -10.7044 0
rtoes -18.8824 0 0
lowerback -8.52441 -3.58459 -6.25706
upperback -0.833339 -4.26888 1.86703
thorax 4.52927 -2.24874 4.93169
lowerneck -19.7591 -5.18442 -12.8187
upperneck 21.3475 -6.06598 10.9127
head 10.8977 -2.54504 5.18936
lclavicle 1.52208e-14 -1.65889e-14 0
lhumerus -26.3044 -27.6983 94.4422
lradius 41.5453 0 0
lwrist 12.6478 0 0
lhand -12.8739 -24.7321 0
lfingers 7.12502 0 0
lthumb 13.2141 4.81818 0
rclavicle 1.52208e-14 -1.65889e-14 0
rhumerus -46.3041 8.09584 -84.3314
rradius 34.7206 0 0
rwrist -20.0698 0 0
rhand -30.4689 -21.8121 0
rfingers 7.12502 0 0
rthumb -3.77023 -51.7591 0
119
root 9.29429 16.0803 -20.7431 4.99654 5.17234 5.57966
lfemur 14.4622 0.464251 -28.8587
ltibia 2.34791 0 0
lfoot -16.8639 0.71556 0
ltoes -5.92036 0 0
rfemur -41.2578 9.89069 6.38925
rtibia 27.5543 0 0
rfoot -24.2303 -11.0943 0
rtoes -18.964 0 0
lowerback -8.54339 -3.66045 -6.42841
upperback -0.884325 -4.35424 1.88216
thorax 4.51065 -2.29255 5.032
lowerneck -19.7529 -5.20154 -12.8672
upperneck 21.3637 -6.07704 10.9128
head 10.9056 -2.55421 5.1965
lclavicle 1.26464e-14 -1.55161e-14 0
lhumerus -26.8383 -27.6602 94.9681
lradius 41.4379 0 0
lwrist 12.4601 0 0
lhand -12.5845 -24.6899 0
lfingers 7.12502 0 0
lthumb 13.4931 4.84235 0
rclavicle 1.26464e-14 -1.55161e-14 0
rhumerus -46.43 7.91371 -84.1393
rradius 34.5414 0 0
rwrist -20.0382 0 0
rhand -30.5483 -21.6661 0
rfingers 7.12502 0 0
rthumb -3.8469 -51.6119 0
